<?xml version="1.0" encoding="UTF-8" standalone="no"?>
<svg
   xmlns:dc="http://purl.org/dc/elements/1.1/"
   xmlns:cc="http://creativecommons.org/ns#"
   xmlns:rdf="http://www.w3.org/1999/02/22-rdf-syntax-ns#"
   xmlns:svg="http://www.w3.org/2000/svg"
   xmlns="http://www.w3.org/2000/svg"
   xmlns:sodipodi="http://sodipodi.sourceforge.net/DTD/sodipodi-0.dtd"
   xmlns:inkscape="http://www.inkscape.org/namespaces/inkscape"
   id="svg927"
   version="1.1"
   width="24"
   viewBox="0 0 24 24"
   height="24"
   sodipodi:docname="aboutmeicon.svg"
   inkscape:version="0.92.4 (fd57863, 2020-04-02)">
  <sodipodi:namedview
     pagecolor="#ffffff"
     bordercolor="#666666"
     borderopacity="1"
     objecttolerance="10"
     gridtolerance="10"
     guidetolerance="10"
     inkscape:pageopacity="0"
     inkscape:pageshadow="2"
     inkscape:window-width="1533"
     inkscape:window-height="845"
     id="namedview3069"
     showgrid="false"
     inkscape:pagecheckerboard="true"
     inkscape:zoom="9.8333333"
     inkscape:cx="0.15254237"
     inkscape:cy="12"
     inkscape:window-x="67"
     inkscape:window-y="27"
     inkscape:window-maximized="1"
     inkscape:current-layer="svg927" />
  <metadata
     id="metadata933">
    <rdf:RDF>
      <cc:Work
         rdf:about="">
        <dc:format>image/svg+xml</dc:format>
        <dc:type
           rdf:resource="http://purl.org/dc/dcmitype/StillImage" />
        <dc:title></dc:title>
      </cc:Work>
    </rdf:RDF>
  </metadata>
  <defs
     id="defs931" />
  <path
     id="path935"
     d="m 10.896347,23.983006 c -0.07182,-0.0099 -0.287293,-0.03825 -0.47882,-0.06301 C 6.5173773,23.41611 3.0309183,20.930467 1.2506041,17.384523 0.6839531,16.255895 0.3176975,15.100998 0.0978754,13.749675 -0.0097528,13.088047 -0.0342391,11.420979 0.0526675,10.671849 0.3787045,7.8614238 1.6616422,5.258832 3.665282,3.3432312 5.493228,1.5956038 7.7335015,0.49885865 10.286938,0.10154265 c 0.814426,-0.1267252 2.509884,-0.1366867 3.308224,-0.019437 2.692989,0.395511 5.017942,1.55159935 6.894586,3.42834995 1.875361,1.8754673 3.032937,4.203677 3.428154,6.8949784 0.11724,0.798384 0.107281,2.493939 -0.01943,3.308411 -0.285844,1.837248 -0.896564,3.432115 -1.878625,4.905949 -0.517357,0.776425 -0.873907,1.21319 -1.524313,1.867239 -1.83176,1.842026 -4.1132,2.996696 -6.748014,3.415265 -0.435165,0.06913 -2.509353,0.127846 -2.851167,0.0807 z m 1.899794,-3.32848 c 2.46213,-0.252128 4.667638,-1.475604 6.120976,-3.395533 0.35898,-0.47423 0.377229,-0.55561 0.225559,-1.005861 -0.387874,-1.151452 -1.931407,-2.154884 -4.241638,-2.757432 -2.067676,-0.539288 -3.71035,-0.546575 -5.7292759,-0.02542 -2.5531794,0.65907 -4.1607576,1.779435 -4.3937281,3.062108 -0.04418,0.243244 -0.041608,0.255744 0.092835,0.451163 0.4052677,0.589071 1.1557413,1.37606 1.7901566,1.877262 1.1496519,0.90825 2.7713635,1.588398 4.1700284,1.748917 0.22744,0.0261 0.472292,0.0543 0.544116,0.06268 0.294102,0.03428 0.997959,0.02543 1.420971,-0.0179 z M 12.572223,10.77294 c 1.359557,-0.218095 2.456362,-1.172129 2.899796,-2.5223269 0.112434,-0.3423434 0.121549,-0.4221158 0.121897,-1.0665273 3.49e-4,-0.6630813 -0.006,-0.715659 -0.133725,-1.0955717 C 15.011569,4.7534805 13.970428,3.8479795 12.610938,3.6104629 10.985652,3.326509 9.3450161,4.201961 8.6746351,5.7108951 c -0.395177,0.8894838 -0.395177,2.0568976 0,2.9463814 0.396948,0.8934745 1.189937,1.6272575 2.1107959,1.9532075 0.537659,0.19031 1.224099,0.25272 1.786792,0.162456 z"
     style="opacity:1;fill:#ffffff;fill-opacity:1;stroke:none;stroke-width:7.28295946;stroke-linecap:round;stroke-linejoin:round;stroke-miterlimit:4;stroke-dasharray:none;stroke-opacity:0"
     inkscape:connector-curvature="0" />
  <path
     id="path925"
     fill="none"
     d="M0 0h24v24H0z" />
</svg>
