<?xml version="1.0" encoding="UTF-8" standalone="no"?>
<svg
   xmlns:dc="http://purl.org/dc/elements/1.1/"
   xmlns:cc="http://creativecommons.org/ns#"
   xmlns:rdf="http://www.w3.org/1999/02/22-rdf-syntax-ns#"
   xmlns:svg="http://www.w3.org/2000/svg"
   xmlns="http://www.w3.org/2000/svg"
   xmlns:sodipodi="http://sodipodi.sourceforge.net/DTD/sodipodi-0.dtd"
   xmlns:inkscape="http://www.inkscape.org/namespaces/inkscape"
   height="24"
   viewBox="0 0 24 24"
   width="24"
   version="1.1"
   id="svg927"
   sodipodi:docname="account_circle-24px.svg"
   inkscape:version="0.92.4 (fd57863, 2020-04-02)">
  <metadata
     id="metadata933">
    <rdf:RDF>
      <cc:Work
         rdf:about="">
        <dc:format>image/svg+xml</dc:format>
        <dc:type
           rdf:resource="http://purl.org/dc/dcmitype/StillImage" />
        <dc:title></dc:title>
      </cc:Work>
    </rdf:RDF>
  </metadata>
  <defs
     id="defs931" />
  <sodipodi:namedview
     pagecolor="#ffffff"
     bordercolor="#666666"
     borderopacity="1"
     objecttolerance="10"
     gridtolerance="10"
     guidetolerance="10"
     inkscape:pageopacity="0"
     inkscape:pageshadow="2"
     inkscape:window-width="1533"
     inkscape:window-height="845"
     id="namedview929"
     showgrid="false"
     inkscape:pagecheckerboard="true"
     inkscape:zoom="27.666667"
     inkscape:cx="12"
     inkscape:cy="12"
     inkscape:window-x="67"
     inkscape:window-y="27"
     inkscape:window-maximized="1"
     inkscape:current-layer="svg927" />
  <path
     d="M12 2C6.48 2 2 6.48 2 12s4.48 10 10 10 10-4.48 10-10S17.52 2 12 2zm0 3c1.66 0 3 1.34 3 3s-1.34 3-3 3-3-1.34-3-3 1.34-3 3-3zm0 14.2c-2.5 0-4.71-1.28-6-3.22.03-1.99 4-3.08 6-3.08 1.99 0 5.97 1.09 6 3.08-1.29 1.94-3.5 3.22-6 3.22z"
     id="path923" />
  <path
     d="M0 0h24v24H0z"
     fill="none"
     id="path925" />
  <path
     style="opacity:1;fill:#ffffff;fill-opacity:1;stroke:#000000;stroke-width:0.30190682;stroke-linecap:round;stroke-linejoin:round;stroke-miterlimit:4;stroke-dasharray:none;stroke-opacity:0"
     d="M 11.085542,21.94701 C 11.025902,21.93881 10.846988,21.91525 10.687952,21.8947 7.4494576,21.476313 4.5544713,19.412473 3.0761848,16.468261 2.6056654,15.531157 2.3015445,14.572241 2.1190149,13.450232 2.0296457,12.90088 2.0093134,11.516706 2.0814764,10.8947 2.3522017,8.5611918 3.4174909,6.4002488 5.0812161,4.8097173 6.5990537,3.3586549 8.4592681,2.4480228 10.579518,2.1181296 c 0.67626,-0.1052205 2.084086,-0.1134915 2.746988,-0.016139 2.236128,0.3283945 4.166656,1.2882995 5.72493,2.8465735 1.557208,1.5572085 2.518403,3.4903308 2.846573,5.7249299 0.09735,0.662902 0.08908,2.070728 -0.01614,2.746988 -0.237351,1.525475 -0.744463,2.8497 -1.559919,4.07343 -0.429588,0.644669 -0.72565,1.007317 -1.265715,1.550377 -1.521005,1.529442 -3.415402,2.488169 -5.603224,2.835709 -0.361339,0.0574 -2.083645,0.10615 -2.36747,0.06701 z m 1.577496,-2.763651 c 2.044434,-0.209343 3.875781,-1.225201 5.082561,-2.819326 0.29808,-0.393755 0.313233,-0.461325 0.187294,-0.83517 -0.322072,-0.956056 -1.603747,-1.789209 -3.52205,-2.289508 -1.716898,-0.447773 -3.080895,-0.453823 -4.7573132,-0.0211 -2.1200361,0.547228 -3.4548911,1.477472 -3.6483384,2.542481 -0.036685,0.201967 -0.034549,0.212346 0.077086,0.374602 0.3365147,0.489108 0.9596715,1.142549 1.4864592,1.558699 0.9546151,0.754124 2.3012053,1.318854 3.4625884,1.452133 0.188856,0.02167 0.392169,0.04509 0.451808,0.05205 0.244208,0.02847 0.828657,0.02111 1.179905,-0.01486 z m -0.18593,-8.204723 c 1.12891,-0.181085 2.039643,-0.973223 2.407849,-2.0942987 0.09336,-0.2842492 0.100929,-0.3504845 0.101218,-0.8855421 2.89e-4,-0.5505593 -0.005,-0.5942147 -0.111039,-0.9096579 C 14.502622,5.9806533 13.638109,5.228812 12.509254,5.0316009 11.159696,4.7958328 9.797392,5.5227243 9.2407392,6.7755987 c -0.328135,0.7385421 -0.328135,1.7078508 0,2.446393 0.3296071,0.7418555 0.9880658,1.3511193 1.7527028,1.6217563 0.446446,0.158015 1.016432,0.209835 1.483666,0.134888 z"
     id="path935"
     inkscape:connector-curvature="0" />
</svg>
