<?xml version="1.0" encoding="UTF-8" standalone="no"?>
<svg
   xmlns:dc="http://purl.org/dc/elements/1.1/"
   xmlns:cc="http://creativecommons.org/ns#"
   xmlns:rdf="http://www.w3.org/1999/02/22-rdf-syntax-ns#"
   xmlns:svg="http://www.w3.org/2000/svg"
   xmlns="http://www.w3.org/2000/svg"
   xmlns:sodipodi="http://sodipodi.sourceforge.net/DTD/sodipodi-0.dtd"
   xmlns:inkscape="http://www.inkscape.org/namespaces/inkscape"
   height="24"
   viewBox="0 0 24 24"
   width="24"
   version="1.1"
   id="svg856"
   sodipodi:docname="cancel-24px.svg"
   inkscape:version="0.92.4 (fd57863, 2020-04-02)">
  <metadata
     id="metadata862">
    <rdf:RDF>
      <cc:Work
         rdf:about="">
        <dc:format>image/svg+xml</dc:format>
        <dc:type
           rdf:resource="http://purl.org/dc/dcmitype/StillImage" />
        <dc:title />
      </cc:Work>
    </rdf:RDF>
  </metadata>
  <defs
     id="defs860" />
  <sodipodi:namedview
     pagecolor="#ffffff"
     bordercolor="#666666"
     borderopacity="1"
     objecttolerance="10"
     gridtolerance="10"
     guidetolerance="10"
     inkscape:pageopacity="0"
     inkscape:pageshadow="2"
     inkscape:window-width="1533"
     inkscape:window-height="845"
     id="namedview858"
     showgrid="false"
     inkscape:pagecheckerboard="true"
     inkscape:zoom="27.666667"
     inkscape:cx="12"
     inkscape:cy="12"
     inkscape:window-x="67"
     inkscape:window-y="27"
     inkscape:window-maximized="1"
     inkscape:current-layer="svg856" />
  <path
     d="M0 0h24v24H0V0z"
     fill="none"
     opacity=".87"
     id="path852" />
  <circle
     style="opacity:1;fill:#02847b;fill-opacity:1;stroke:none;stroke-width:12.90255737;stroke-linecap:round;stroke-linejoin:round;stroke-miterlimit:4;stroke-dasharray:none;stroke-opacity:0"
     id="path853"
     cx="12"
     cy="12"
     r="12" />
  <path
     d="M 12,0 C 5.364,0 0,5.364 0,12 0,18.636 5.364,24 12,24 18.636,24 24,18.636 24,12 24,5.364 18.636,0 12,0 Z m 5.16,17.16 c -0.468,0.468 -1.224,0.468 -1.692,0 L 12,13.692 8.532,17.16 c -0.468,0.468 -1.224,0.468 -1.692,0 -0.468,-0.468 -0.468,-1.224 0,-1.692 L 10.308,12 6.84,8.532 C 6.372,8.064 6.372,7.308 6.84,6.84 7.308,6.372 8.064,6.372 8.532,6.84 L 12,10.308 15.468,6.84 c 0.468,-0.468 1.224,-0.468 1.692,0 0.468,0.468 0.468,1.224 0,1.692 L 13.692,12 17.16,15.468 c 0.456,0.456 0.456,1.224 0,1.692 z"
     id="path854"
     inkscape:connector-curvature="0"
     style="stroke-width:1.20000005;fill:#ffffff" />
</svg>
