<?xml version="1.0" encoding="UTF-8" standalone="no"?>
<svg
   xmlns:dc="http://purl.org/dc/elements/1.1/"
   xmlns:cc="http://creativecommons.org/ns#"
   xmlns:rdf="http://www.w3.org/1999/02/22-rdf-syntax-ns#"
   xmlns:svg="http://www.w3.org/2000/svg"
   xmlns="http://www.w3.org/2000/svg"
   xmlns:sodipodi="http://sodipodi.sourceforge.net/DTD/sodipodi-0.dtd"
   xmlns:inkscape="http://www.inkscape.org/namespaces/inkscape"
   id="svg1327"
   version="1.1"
   viewBox="0 0 6.8791667 6.8791667"
   height="26"
   width="26"
   sodipodi:docname="linkedin.svg"
   inkscape:version="0.92.4 (f8dce91, 2019-08-02)">
  <sodipodi:namedview
     pagecolor="#ffffff"
     bordercolor="#666666"
     borderopacity="1"
     objecttolerance="10"
     gridtolerance="10"
     guidetolerance="10"
     inkscape:pageopacity="0"
     inkscape:pageshadow="2"
     inkscape:window-width="1533"
     inkscape:window-height="845"
     id="namedview864"
     showgrid="false"
     units="px"
     inkscape:zoom="6.7570513"
     inkscape:cx="49.133858"
     inkscape:cy="49.133858"
     inkscape:window-x="67"
     inkscape:window-y="27"
     inkscape:window-maximized="1"
     inkscape:current-layer="svg1327" />
  <defs
     id="defs1321" />
  <metadata
     id="metadata1324">
    <rdf:RDF>
      <cc:Work
         rdf:about="">
        <dc:format>image/svg+xml</dc:format>
        <dc:type
           rdf:resource="http://purl.org/dc/dcmitype/StillImage" />
        <dc:title></dc:title>
      </cc:Work>
    </rdf:RDF>
  </metadata>
  <g
     transform="matrix(0.26458334,0,0,0.26458334,0,-71.702084)"
     id="layer1">
    <g
       transform="translate(0,271)"
       id="g1928"
       style="fill:#000000">
      <path
         style="fill:#ffffff"
         d="M 21.125,0 H 4.875 C 2.183594,0 0,2.183594 0,4.875 v 16.25 C 0,23.816406 2.183594,26 4.875,26 h 16.25 C 23.816406,26 26,23.816406 26,21.125 V 4.875 C 26,2.183594 23.816406,0 21.125,0 Z M 8.039063,22.070313 H 4 L 3.976563,9.976563 H 8.015625 Z M 5.917969,8.394531 H 5.894531 c -1.320312,0 -2.171875,-0.910156 -2.171875,-2.042968 0,-1.160157 0.878907,-2.039063 2.222657,-2.039063 1.34375,0 2.167968,0.878906 2.195312,2.039063 0,1.132812 -0.855469,2.042968 -2.222656,2.042968 z m 16.125,13.675782 H 17.96875 V 15.5 c 0,-1.589844 -0.421875,-2.671875 -1.84375,-2.671875 -1.085937,0 -1.671875,0.730469 -1.953125,1.4375 -0.105469,0.253906 -0.132812,0.601563 -0.132812,0.957031 v 6.847657 H 9.945313 L 9.921875,9.976563 h 4.09375 l 0.02344,1.707031 C 14.5625,10.875 15.433594,9.730469 17.519531,9.730469 c 2.585938,0 4.519532,1.6875 4.519532,5.316406 v 7.023438 z"
         id="path1917"
         inkscape:connector-curvature="0" />
    </g>
  </g>
</svg>
